<svg width="40" height="40" viewBox="0 0 40 40" fill="none" xmlns="http://www.w3.org/2000/svg">
<path d="M20.0002 0C19.4698 0 18.961 0.210714 18.586 0.585786C18.2109 0.960859 18.0002 1.46957 18.0002 2C18.0002 2.53043 18.2109 3.03914 18.586 3.41421C18.961 3.78929 19.4698 4 20.0002 4C20.5306 4 21.0393 3.78929 21.4144 3.41421C21.7895 3.03914 22.0002 2.53043 22.0002 2C22.0002 1.46957 21.7895 0.960859 21.4144 0.585786C21.0393 0.210714 20.5306 0 20.0002 0ZM19.9689 7.97266C19.4392 7.98094 18.9344 8.19906 18.5653 8.57915C18.1962 8.95923 17.9929 9.47023 18.0002 10V25.1719L13.4143 20.5859C13.2279 20.3943 13.005 20.2421 12.7588 20.1381C12.5125 20.0341 12.2479 19.9805 11.9807 19.9805C11.5828 19.9806 11.194 20.0993 10.864 20.3216C10.534 20.5438 10.2777 20.8594 10.128 21.228C9.97828 21.5966 9.9419 22.0015 10.0235 22.3909C10.1051 22.7803 10.301 23.1366 10.5861 23.4141L18.5861 31.4141C18.9612 31.789 19.4698 31.9996 20.0002 31.9996C20.5305 31.9996 21.0392 31.789 21.4142 31.4141L29.4142 23.4141C29.6062 23.2298 29.7594 23.009 29.865 22.7648C29.9706 22.5205 30.0264 22.2577 30.0291 21.9916C30.0318 21.7255 29.9814 21.4615 29.8808 21.2152C29.7802 20.9688 29.6315 20.745 29.4433 20.5569C29.2552 20.3687 29.0314 20.22 28.785 20.1194C28.5386 20.0188 28.2747 19.9684 28.0086 19.9711C27.7425 19.9738 27.4797 20.0296 27.2354 20.1352C26.9912 20.2407 26.7704 20.394 26.5861 20.5859L22.0002 25.1719V10C22.0039 9.73242 21.9538 9.46683 21.853 9.21895C21.7521 8.97107 21.6026 8.74594 21.4132 8.5569C21.2238 8.36786 20.9983 8.21874 20.7503 8.11839C20.5022 8.01803 20.2365 7.96848 19.9689 7.97266ZM1.96894 29.9727C1.43919 29.9809 0.934364 30.1991 0.565261 30.5791C0.196159 30.9592 -0.00706688 31.4702 0.000187764 32V36C0.000187764 38.1861 1.81406 40 4.00019 40H36.0002C38.1863 40 40.0002 38.1861 40.0002 36V32C40.0039 31.735 39.955 31.4719 39.8561 31.2259C39.7573 30.98 39.6106 30.7561 39.4245 30.5674C39.2384 30.3787 39.0167 30.2288 38.7722 30.1265C38.5276 30.0242 38.2652 29.9715 38.0002 29.9715C37.7351 29.9715 37.4727 30.0242 37.2282 30.1265C36.9837 30.2288 36.762 30.3787 36.5759 30.5674C36.3898 30.7561 36.2431 30.98 36.1442 31.2259C36.0454 31.4719 35.9964 31.735 36.0002 32V36H4.00019V32C4.00385 31.7324 3.95379 31.4668 3.85295 31.2189C3.75212 30.9711 3.60258 30.7459 3.41317 30.5569C3.22376 30.3679 2.99835 30.2187 2.75027 30.1184C2.5022 30.018 2.23651 29.9685 1.96894 29.9727Z" fill="#5BAFA7"/>
</svg>
