<svg width="72" height="32" viewBox="0 0 72 32" fill="none" xmlns="http://www.w3.org/2000/svg">
<path d="M48.1309 13.347C42.9852 13.347 38.7986 17.5304 38.7986 22.672C38.7986 27.8135 42.9852 31.9984 48.1309 31.9984C53.2765 31.9984 57.4647 27.8151 57.4647 22.672C57.4647 17.5304 53.2765 13.347 48.1309 13.347ZM48.1309 29.5176C44.3539 29.5176 41.2814 26.4475 41.2814 22.672C41.2814 18.898 44.3539 15.8279 48.1309 15.8279C51.9078 15.8279 54.9819 18.898 54.9819 22.672C54.9819 26.4475 51.9078 29.5176 48.1309 29.5176Z" fill="#5BAFA7"/>
<path d="M9.33227 13.347C4.18664 13.347 0 17.5304 0 22.6735C0 27.8151 4.18664 32 9.33227 32C12.4901 32 15.2833 30.4231 16.9731 28.0198L14.9403 26.5979C13.7005 28.3624 11.649 29.5191 9.33227 29.5191C5.97892 29.5191 3.18265 27.0987 2.59764 23.9139H18.5807L18.5854 23.8814C18.6366 23.486 18.6661 23.0829 18.6661 22.6735C18.6661 17.5304 14.4795 13.347 9.33227 13.347ZM2.59764 21.4331C3.18421 18.2498 5.98047 15.8294 9.33227 15.8294C12.6856 15.8294 15.4819 18.2498 16.0685 21.4331H2.59764Z" fill="#5BAFA7"/>
<path d="M38.2494 10.2242L37.8769 10.0723C37.8087 10.0444 37.7295 10.0568 37.6721 10.1033L34.0348 13.1253C33.9215 13.2199 33.9448 13.3997 34.0782 13.4633L34.2924 13.5641C34.325 13.5796 34.3591 13.5858 34.3948 13.5827L35.5291 13.4897L28.4888 28.2027L22.8792 14.1037H19.8967L27.0146 31.217L29.9397 31.2232L37.0576 14.2293L37.7373 15.155C37.7575 15.1813 37.7838 15.203 37.8133 15.2185L38.0864 15.3472C38.2199 15.4108 38.3735 15.3131 38.3735 15.1643V10.4103C38.3751 10.3281 38.3254 10.2553 38.2494 10.2242Z" fill="#5BAFA7"/>
<path d="M71.2923 0H66.3205H61.8204C61.4294 0 61.1128 0.31631 61.1128 0.707045V4.96792C61.1128 5.35866 61.4294 5.67497 61.8204 5.67497H65.6129C66.0039 5.67497 66.3205 5.99128 66.3205 6.38201V10.1715C66.3205 10.5623 66.6371 10.8786 67.0281 10.8786H71.2923C71.6834 10.8786 71.9999 10.5623 71.9999 10.1715V5.67497V0.707045C71.9999 0.31631 71.6834 0 71.2923 0Z" fill="#5BAFA7"/>
<path d="M63.2977 7.10301H58.9295C58.2126 7.10301 57.6292 7.68601 57.6292 8.40236V12.7671C57.6292 13.4835 58.2126 14.0665 58.9295 14.0665H63.2977C64.0146 14.0665 64.5981 13.4835 64.5981 12.7671V8.40391C64.5981 7.68601 64.0146 7.10301 63.2977 7.10301ZM63.3567 12.7671C63.3567 12.7997 63.3303 12.826 63.2977 12.826H58.9295C58.8969 12.826 58.8706 12.7997 58.8706 12.7671V8.40391C58.8706 8.37135 58.8969 8.34499 58.9295 8.34499H63.2977C63.3303 8.34499 63.3567 8.37135 63.3567 8.40391V12.7671Z" fill="#5BAFA7"/>
</svg>
